<svg xmlns="http://www.w3.org/2000/svg" viewBox="0 0 128.29 128.28"><defs><style>.cls-1{fill:#f7f7f7;}.cls-2{fill:#00b7f1;}</style></defs><g id="Layer_2" data-name="Layer 2"><g id="Layer_1-2" data-name="Layer 1"><rect class="cls-1" x="0.29" width="128" height="128"/><path class="cls-2" d="M46.29,58.69C39.59,66.3,35.2,76.33,33,86.17c-.88,3.9-4.55,19.56,4.3,16.09C46,98.86,51,87.85,54.42,80A160.61,160.61,0,0,0,64.87,45.74a1.18,1.18,0,0,0-2.27-.63c-3,7.9-6,16.56-6.7,25-.29,3.26.28,7.25,4.2,7.44a1.28,1.28,0,0,0,1.2-.92c8.4-23.9,16.9-47.8,24.17-72.09.36-1.2-1.39-1.61-1.84-.5C70.19,37.76,60.3,75.45,62,112a.79.79,0,0,0,1.57,0c1.25-18.54,2.8-36.88,6.59-55.12A345.13,345.13,0,0,1,85.47,4.59l-1.84-.5C78.13,20.76,72.72,37.46,66.89,54Q64.78,60,62.62,66c-.73,2-1.25,4.55-2.33,6.42q.08,2.52-1.23,1.56c-.94-.28-1.2-1-.79-2.29-.17-8.38,3.66-18.22,6.6-25.91l-2.27-.63a161,161,0,0,1-6.72,24.6c-2.93,8-6.3,16.66-11.7,23.41-2.3,2.88-9.25,11-10.09,2.55-.4-4,1.25-9.06,2.29-12.94,2.3-8.51,6.34-15.83,10.87-23.3.35-.58-.5-1.27-1-.74Z"/><path class="cls-2" d="M87.27,22c-5.43,14.83-4.35,33.73.24,48.6a.27.27,0,0,0,.52-.14,147.77,147.77,0,0,1-2.42-25.09c0-7.88,1.48-15.49,2.23-23.3,0-.35-.47-.36-.57-.07Z"/><path class="cls-2" d="M55.27,68.47c-12.91,1.44,1.59-25,4.14-28.88A79.91,79.91,0,0,1,76,21.22,75.56,75.56,0,0,1,98.59,8.68a61.32,61.32,0,0,1,11.06-2.85c7.15-1,11.55,2.12,13.6,9C129,34.17,112.6,52.93,100.17,65.56a246.57,246.57,0,0,1-43.58,35.08A246.24,246.24,0,0,1,29.06,115.8c-9.47,4.44-19.33,7.83-28.91,12-.31.13-.08.57.21.51,22-4.5,43.85-16.33,62.36-28.63C81.61,87.09,100.14,71.79,114,53.69c6-7.9,11.2-17,12.34-27.08.82-7.31-.36-18.76-8.08-22.34-7.07-3.27-17.88,1.23-24.46,4A79.3,79.3,0,0,0,69.71,24a75.19,75.19,0,0,0-18,26.27c-1.79,4.46-7.13,20.65,3.62,18.58.22,0,.17-.41,0-.39Z"/></g></g></svg>