<svg xmlns="http://www.w3.org/2000/svg" viewBox="0 0 65.86 56.57"><defs><style>.cls-1{stroke:#fff;stroke-miterlimit:10;stroke-width:0.5px;}.cls-2{fill:#00b7f1;}.cls-3{font-size:5.32px;fill:#fff;font-family:Montserrat-Regular, Montserrat;}.cls-4{letter-spacing:-0.01em;}.cls-5{letter-spacing:0em;}</style></defs><g id="Layer_2" data-name="Layer 2"><g id="Layer_1-2" data-name="Layer 1"><line class="cls-1" x1="59.33" x2="59.33" y2="56.57"/><path class="cls-2" d="M21,25.21C19.16,27.37,9.9,44.45,16.11,44.92c3.12.23,6.25-5.66,7.35-7.83A68.78,68.78,0,0,0,29.3,19.37a.47.47,0,0,0-.91-.25c-.9,2.38-5.91,13.43-1.32,14.48a.52.52,0,0,0,.61-.35c3.79-10.74,7.6-21.46,11-32.34.15-.48-.55-.64-.73-.2-6.22,15.08-10.35,32-9.82,48.4a.32.32,0,0,0,.63,0c.73-11.61,2.11-23,5.29-34.19q1.13-4,2.46-7.94a16.31,16.31,0,0,0,1.22-3.47c.14-2.31-.5-.08-1,.81-2.5,4.86-3.65,11-5.47,16.18-.84,2.38-1.69,4.77-2.56,7.15-.45,1.24-.8,4.64-1.7,2.44-.55-1.32-.21-2.22.1-3.56.11-.51,1.75-6.27,1-5.73S26.42,27,26,28.26c-1.1,3.28-4.5,14.75-9,13.48-1.67.18-2.15-.46-1.43-1.89a22.28,22.28,0,0,1,.56-3c.25-1,.56-2,.9-3a43.58,43.58,0,0,1,4.28-8.28c.14-.23-.2-.51-.38-.3Z"/><path class="cls-2" d="M39.52,12.67a38.86,38.86,0,0,0,.11,21.8.11.11,0,0,0,.21-.06,67.05,67.05,0,0,1-.09-21.67c0-.15-.18-.22-.23-.07Z"/><path class="cls-2" d="M25,29.59c-1.32-.07-1.85-5.2-1.61-6.32a16.54,16.54,0,0,1,1.76-3.86A36.37,36.37,0,0,1,29.59,13,34.59,34.59,0,0,1,40.2,4.59,32.74,32.74,0,0,1,46.81,2a13,13,0,0,1,4-.73c4.49.46,5.42,4.37,5.45,7.6.05,6.14-3.83,11.64-7.72,16.05C35.32,40,18.32,48.76.08,56.17a.11.11,0,0,0,.06.22c13.58-3.12,26.63-10.86,37.34-19.57C45.88,30,60,18.3,56.85,5.79,54.11-5.27,39,3.58,33.66,7.87A34.16,34.16,0,0,0,23.31,21.75c-1,2.65-2.84,8.08,1.7,8a.08.08,0,0,0,0-.16Z"/><text class="cls-3" transform="translate(64.47 52.62) rotate(-90)">GRA<tspan class="cls-4" x="11.77" y="0">P</tspan><tspan class="cls-5" x="15.53" y="0">HIC DESING</tspan></text></g></g></svg>